<?xml version="1.0" encoding="utf-8"?>
<!-- Generator: Adobe Illustrator 25.0.1, SVG Export Plug-In . SVG Version: 6.00 Build 0)  -->
<svg version="1.1" id="레이어_1" xmlns="http://www.w3.org/2000/svg" xmlns:xlink="http://www.w3.org/1999/xlink" x="0px"
	 y="0px" viewBox="0 0 221.5 50.5" style="enable-background:new 0 0 221.5 50.5;" xml:space="preserve">
<style type="text/css">
	.st0{fill:#1D50A0;}
</style>
<g transform="translate(0 0)">
	<g transform="translate(0 0)">
		<g>
			<g>
				<g transform="translate(13.221 13.22)">
					<path class="st0" d="M25.4,6.6c4.8-0.1,8.8,3.8,8.9,8.6c0,0.1,0,0.2,0,0.3c0.1,4.9-3.8,8.8-8.7,8.9c-0.1,0-0.2,0-0.2,0
						c-4.9,0.1-8.9-3.8-8.9-8.7c0-0.1,0-0.1,0-0.2c-0.1-4.9,3.8-8.8,8.7-8.9C25.2,6.6,25.3,6.6,25.4,6.6 M70.6,6.6
						c4.8-0.1,8.8,3.8,8.9,8.6c0,0.1,0,0.2,0,0.3c0.1,4.9-3.8,8.8-8.7,8.9c-0.1,0-0.2,0-0.2,0c-4.9,0.1-8.9-3.8-8.9-8.7
						c0-0.1,0-0.1,0-0.2c-0.1-4.9,3.8-8.8,8.7-8.9C70.4,6.6,70.5,6.6,70.6,6.6 M152.9,5.7c3.9,0,7.2,2.6,8.3,6.3h-16.5
						C145.7,8.3,149,5.7,152.9,5.7 M25.4,31.8c7.7,0.2,14.4-5.1,15.9-12.7V31H49V16.2c0-0.7,0-1.4,0.1-2.1c0.1-4.5,3.1-7.2,7.8-7.3
						c-1.7,2.6-2.6,5.7-2.6,8.8c0,9,7.3,16.3,16.3,16.3c0,0,0,0,0,0c7.8,0,14.5-5.5,16-13.2v0c0,7.8,6.3,13.2,13.9,13.2
						c3.1,0,6.1-1.3,8.2-3.6V31h7.6V14.7c0-0.3,0-0.6,0-0.8c0.2-5.2,3.2-7.4,6.6-7.4c3.3,0,6.2,2.3,6.3,7.4c0,0.4,0,0.7,0,1.2V31
						h7.7V18.9c1.4,7.7,8.2,13.2,16,12.9c7.3,0.4,13.8-4.6,15.4-11.7h-7.5c-1.2,3.3-4.4,5.5-7.9,5.4c-4.3,0-8-3.2-8.6-7.5h24.8v13
						h7.7V16.1c0-0.7,0-1.4,0.1-2.1c0.1-4.6,3.2-7.3,8-7.3h0.8v-7.3h-0.8c-10.1,0-15.5,5.7-15.7,13c-1.4-7.8-8.3-13.4-16.2-13.2
						c-7.8-0.1-14.6,5.4-16,13.2c0.1-7.1-5.6-13-12.7-13.2c-3,0-5.9,1.2-8,3.3V-7.8h-7.6v22.9c0,0.8,0,1.6-0.1,2.4
						c-0.5,4.7-3.7,7.1-7.1,7.1c-3.6,0-6.9-1.7-7-7.1c0-0.9,0-1.3,0-2V7h11.9v-7.2H94.3v-7.5h-7.7v20.2c-1.5-7.7-8.2-13.2-16-13.2
						c-4.9,0-9.6,2.2-12.7,6v-5.8h-0.8c-10,0-15.3,5.5-15.7,12.7C40.1,4.8,33.7-0.6,26.3-0.6c-3.6-0.1-7,1.3-9.5,3.9V-7.8H9.3v19.3
						c0,1.4,0,2.8,0.1,4C9.5,24.4,15.7,31.8,25.4,31.8"/>
				</g>
			</g>
		</g>
	</g>
</g>
</svg>
