<?xml version="1.0" encoding="utf-8"?>
<!-- Generator: Adobe Illustrator 25.0.1, SVG Export Plug-In . SVG Version: 6.00 Build 0)  -->
<svg version="1.1" id="레이어_1" xmlns="http://www.w3.org/2000/svg" xmlns:xlink="http://www.w3.org/1999/xlink" x="0px"
	 y="0px" viewBox="0 0 221.5 50.5" style="enable-background:new 0 0 221.5 50.5;" xml:space="preserve">
<style type="text/css">
	.st0{display:none;}
	.st1{display:inline;}
	.st2{fill:#1D50A0;}
	.st3{fill:#D1082B;}
</style>
<g transform="translate(0 0)" class="st0">
	<g transform="translate(0 0)" class="st1">
		<g>
			<g>
				<g transform="translate(13.221 13.22)">
					<path class="st2" d="M25.4,6.6c4.8-0.1,8.8,3.8,8.9,8.6c0,0.1,0,0.2,0,0.3c0.1,4.9-3.8,8.8-8.7,8.9c-0.1,0-0.2,0-0.2,0
						c-4.9,0.1-8.9-3.8-8.9-8.7c0-0.1,0-0.1,0-0.2c-0.1-4.9,3.8-8.8,8.7-8.9C25.2,6.6,25.3,6.6,25.4,6.6 M70.6,6.6
						c4.8-0.1,8.8,3.8,8.9,8.6c0,0.1,0,0.2,0,0.3c0.1,4.9-3.8,8.8-8.7,8.9c-0.1,0-0.2,0-0.2,0c-4.9,0.1-8.9-3.8-8.9-8.7
						c0-0.1,0-0.1,0-0.2c-0.1-4.9,3.8-8.8,8.7-8.9C70.4,6.6,70.5,6.6,70.6,6.6 M152.9,5.7c3.9,0,7.2,2.6,8.3,6.3h-16.5
						C145.7,8.3,149,5.7,152.9,5.7 M25.4,31.8c7.7,0.2,14.4-5.1,15.9-12.7V31H49V16.2c0-0.7,0-1.4,0.1-2.1c0.1-4.5,3.1-7.2,7.8-7.3
						c-1.7,2.6-2.6,5.7-2.6,8.8c0,9,7.3,16.3,16.3,16.3c0,0,0,0,0,0c7.8,0,14.5-5.5,16-13.2v0c0,7.8,6.3,13.2,13.9,13.2
						c3.1,0,6.1-1.3,8.2-3.6V31h7.6V14.7c0-0.3,0-0.6,0-0.8c0.2-5.2,3.2-7.4,6.6-7.4c3.3,0,6.2,2.3,6.3,7.4c0,0.4,0,0.7,0,1.2V31
						h7.7V18.9c1.4,7.7,8.2,13.2,16,12.9c7.3,0.4,13.8-4.6,15.4-11.7h-7.5c-1.2,3.3-4.4,5.5-7.9,5.4c-4.3,0-8-3.2-8.6-7.5h24.8v13
						h7.7V16.1c0-0.7,0-1.4,0.1-2.1c0.1-4.6,3.2-7.3,8-7.3h0.8v-7.3h-0.8c-10.1,0-15.5,5.7-15.7,13c-1.4-7.8-8.3-13.4-16.2-13.2
						c-7.8-0.1-14.6,5.4-16,13.2c0.1-7.1-5.6-13-12.7-13.2c-3,0-5.9,1.2-8,3.3V-7.8h-7.6v22.9c0,0.8,0,1.6-0.1,2.4
						c-0.5,4.7-3.7,7.1-7.1,7.1c-3.6,0-6.9-1.7-7-7.1c0-0.9,0-1.3,0-2V7h11.9v-7.2H94.3v-7.5h-7.7v20.2c-1.5-7.7-8.2-13.2-16-13.2
						c-4.9,0-9.6,2.2-12.7,6v-5.8h-0.8c-10,0-15.3,5.5-15.7,12.7C40.1,4.8,33.7-0.6,26.3-0.6c-3.6-0.1-7,1.3-9.5,3.9V-7.8H9.3v19.3
						c0,1.4,0,2.8,0.1,4C9.5,24.4,15.7,31.8,25.4,31.8"/>
				</g>
			</g>
		</g>
	</g>
</g>
<g transform="translate(-136.632 -248.945)">
	<path class="st3" d="M258.5,292.4c-11.6,0-18.6-7-18.6-18.8s7-18.8,18.6-18.8c11.7,0,18.6,7,18.6,18.8
		C277.1,285.3,270.1,292.4,258.5,292.4z M258.5,260.7c-6.1,0-9.8,4.8-9.8,12.9s3.7,12.9,9.8,12.9s9.8-4.8,9.8-12.9
		S264.6,260.7,258.5,260.7z"/>
	<path class="st3" d="M233.6,291.8h-8.8c-17.6,0-18.9-13.9-18.9-18.2c0-4.3,1.4-18.1,18.9-18.1H237l-0.1,0.2c0,0-0.8,1.9-1.4,3.4
		c-0.6,1.5-1.2,2.2-2.9,2.2h-7.9c-6.1,0-10,4.8-10,12.2c0,7.4,4,12.4,10,12.4c2,0,4.5,0,4.5,0h9l-0.1,0.2c0,0-0.4,0.9-1.3,3.1
		C235.9,291.6,235.1,291.8,233.6,291.8z"/>
	<path class="st3" d="M346.6,291.8h-20.8l0.1-0.2c0,0,1-2.2,1.9-4c0.5-1.2,1.7-1.9,2.9-1.7h12.4c2.5,0.1,4.6-1.9,4.6-4.4
		c0,0,0-0.1,0-0.1c0-2.5-1.9-4.5-4.3-4.7h-7.1c-5.9-0.2-10.4-5.2-10.2-11c0.2-5.5,4.7-10,10.2-10.2h19.8l-0.1,0.2
		c0,0-0.7,1.8-1.4,3.6c-0.4,1.1-0.9,2-2.5,2h-12.3c-2.6,0-4.7,2-4.7,4.6c0,0,0,0.1,0,0.1c0,2.6,2.1,4.7,4.7,4.7h6.8
		c5.8,0.1,10.4,4.9,10.3,10.7C356.8,287.1,352.3,291.7,346.6,291.8L346.6,291.8z"/>
	<path class="st3" d="M159.7,291.8H144c-3.5,0-6.2-2.9-6.2-6.3v-30h6.1c1.5,0,2.6,1.2,2.6,2.7v25c0,1.5,1.2,2.8,2.7,2.8h15l-0.1,0.2
		c0,0-0.4,1-1.3,3.1C162,291.6,161.3,291.8,159.7,291.8z"/>
	<path class="st3" d="M183.4,292.2c-10.7,0-17.4-6.7-17.4-17.6v-19.2h6.1c1.5,0,2.7,1.2,2.7,2.7c0,0,0,0,0,0c0,0,0,13.3,0,17.3
		c0,7.5,2.7,10.9,8.7,10.9c5.7,0,8.6-3.7,8.6-10.9c0-3,0-19.8,0-19.8v-0.2h6.1c1.5,0,2.6,1.2,2.6,2.7v16.5c0.2,4.6-1.4,9.1-4.4,12.6
		C192.9,290.7,188.2,292.5,183.4,292.2z"/>
	<path class="st3" d="M320.7,258.2c0-1.4-1.1-2.5-2.5-2.5h-0.1l0,0h-3.5c-2.5,0-5.3,0.4-6.8,4.3c-0.6,1.7-6.1,16-6.1,16l-6.3-16.2
		c-1.3-3.4-3.1-4.1-5.5-4.1H285h0h-0.1c-1.4,0-2.5,1.1-2.5,2.5c0,0,0,0,0,0s0,0,0,0v33.4h5.9v-26.8c1.7,4.3,8.1,20.8,8.8,22.7
		c0.5,1.3,1.7,2.2,3.1,2.2c1.4,0,2.6-0.9,3-2.2c2.3-5.9,9.1-24,9.1-24v25.1l0,0c0,1.5,1.2,2.8,2.8,2.8h5.6v-33.4l0,0
		C320.7,258.3,320.7,258.2,320.7,258.2z"/>
</g>
</svg>
